<svg xmlns="http://www.w3.org/2000/svg" height="800" width="1200" id="svg21755" version="1.1" viewBox="-2.857533 -0.9504125 24.765286 5.702475"><defs id="defs21749"><style id="style21757">.cls-1{fill:#231f20}</style></defs><g transform="translate(-255.94647 -307.06212)" id="layer1"><g transform="translate(255.94669 307.06214) scale(.26458)" id="g21777"><path class="cls-1" d="M23.33 4.36h-5.79v6.25h5.78c1.92 0 2.59-.63 2.59-2.18V6.54c0-1.54-.67-2.18-2.59-2.18M24 7.88C24 8.77 23.68 9 22.86 9h-3.4V5.92h3.4c.82 0 1.14.23 1.14 1.08zm4.82 1.23h5v1.5H26.9V4.36h6.84v1.45h-4.92v1h4.66v1.3h-4.66zm27.64-4.82h-3.07c-1.73 0-2.75.43-2.75 2.26v1.87c0 1.83 1 2.26 2.75 2.26h3.07c1.73 0 2.75-.43 2.75-2.26V6.56c0-1.83-1-2.26-2.75-2.26m.79 3.53c0 .9-.19 1.25-1.1 1.25H53.7c-.91 0-1.1-.35-1.1-1.25v-.68c0-.78.19-1.25 1.2-1.25H56c1 0 1.2.48 1.2 1.25zm12.87-3.47v1.56h-2.69v4.69h-1.92V5.92h-2.69V4.36zm-22.34 0H42v6.25h1.92V9h3c.6 0 .79.21.79.87v.75h1.92V9.55c0-1-.48-1.28-1-1.38.88-.21 1.07-.7 1.07-1.54v-.4c0-1.12-.4-1.86-1.87-1.86m0 2.42c0 .45-.19.66-.71.66h-3.21V5.92h3c.6 0 .88.1.88.65zm12.48-2.43h1.92v6.25h-1.92zm-26.1 0h7.3v1.56h-2.7v4.69H36.9V5.92h-2.7z" transform="translate(0 -.17)" id="path21763" fill="#231f20"/><path class="cls-1" id="polygon21765" fill="#231f20" d="M70.46 4.29V4.2h.63v.09h-.26v.7h-.11v-.7z"/><path class="cls-1" id="polygon21767" fill="#231f20" d="M71.6 4.87l.25-.67H72v.79h-.1v-.66l-.25.66h-.09l-.25-.66v.66h-.1V4.2h.14z"/><path class="cls-1" d="M12.28 10.71l-2.23-2.29h1.67v-1S11.76 2.7 7 2.7a4.87 4.87 0 00-2.89 1l.7.72a3.65 3.65 0 015.88 2.9h-3l4.62 4.74a7 7 0 001.58-2.87z" transform="translate(0 -.17)" id="path21769" fill="#231f20"/><path class="cls-1" d="M7 .32A7 7 0 002.45 2l.8.82A5.81 5.81 0 017 1.55a5.75 5.75 0 016 5.84v1h1A7 7 0 007 .32" transform="translate(0 -.17)" id="path21771" fill="#231f20"/><path class="cls-1" d="M4 6.39H2.37v1s0 4.68 4.72 4.68A5.19 5.19 0 0010 11l-.71-.73a3.65 3.65 0 01-5.88-2.9h3.03L1.83 2.63a7 7 0 00-1.6 2.95l1.58-1.47zm6.83 5.51A5.79 5.79 0 017 13.27a5.8 5.8 0 01-5.87-5.84v-1H.07a7.2 7.2 0 00-.07 1 7 7 0 0011.65 5.34z" transform="translate(0 -.17)" id="path21773" fill="#231f20"/><path class="cls-1" d="M13.34.17a.89.89 0 11-.89.88.88.88 0 01.89-.88m0 1.64a.73.73 0 00.73-.76.73.73 0 10-1.46 0 .73.73 0 00.73.76M13 .54h.4c.25 0 .36.1.36.3a.27.27 0 01-.27.28l.3.46h-.17l-.28-.45h-.17v.45H13zm.16.46h.17c.14 0 .27 0 .27-.17s-.12-.16-.23-.16h-.21z" transform="translate(0 -.17)" id="path21775" fill="#231f20"/></g></g></svg>