<?xml version="1.0" encoding="UTF-8"?>
<!DOCTYPE svg PUBLIC "-//W3C//DTD SVG 1.1//EN" "http://www.w3.org/Graphics/SVG/1.1/DTD/svg11.dtd">
<!-- Creator: CorelDRAW 2021 (64-Bit) -->
<svg xmlns="http://www.w3.org/2000/svg" xml:space="preserve" width="8.5in" height="11in" version="1.1" style="shape-rendering:geometricPrecision; text-rendering:geometricPrecision; image-rendering:optimizeQuality; fill-rule:evenodd; clip-rule:evenodd"
viewBox="0 0 8500 11000"
 xmlns:xlink="http://www.w3.org/1999/xlink"
 xmlns:xodm="http://www.corel.com/coreldraw/odm/2003">
 <defs>
  <style type="text/css">
   <![CDATA[
    .fil0 {fill:#373435}
    .fil1 {fill:#373435;fill-rule:nonzero}
   ]]>
  </style>
 </defs>
 <g id="Capa_x0020_1">
  <metadata id="CorelCorpID_0Corel-Layer"/>
  <path class="fil0" d="M1324.86 5305.07c230.65,-43.43 213.55,-183.46 86.99,-170.81l-234.08 36.57c-117.04,-19.5 -102.41,-117.03 0,-204.82 536.88,-390.14 989.5,-587.63 1389.84,-665.66 -120.67,203.61 -320.61,382.83 -694.92,508.39 -151.96,-0.74 -326,685.94 -124.35,757.1 239.73,25.37 436.08,-6.91 325.52,-175.56l-135.33 -14.63c-116.79,2.08 -165.31,-25.1 -145.56,-81.54l105.32 -200.08c51.2,-125.57 131.67,-115.82 193.85,-106.07l460.84 0c126.8,-7.91 241.39,-43.26 329.17,-138.98 154.55,-100.79 158.49,-365.75 237.74,-548.62 -36.65,136.12 -40.16,308.38 -103.91,447.5 396.8,5.55 658.95,51.12 758.6,145.01 47.04,31.27 221.81,-34.15 229.7,-78.18 62.35,-226.92 98.77,-388.13 245.77,-536.28 -197.31,271.09 -220.74,557.48 -336.49,900.61 -24.39,85.06 -81.9,130.95 -73.15,255.16 18.65,90.93 97.53,97.53 146.3,146.3l402.32 -14.63c51.58,0.38 -48.95,-210.43 -292.6,-182.87 -36.28,-70.57 53.93,-123.06 80.89,-184.59 422.24,-380.95 746.48,-972.6 745.7,-1073.58 -14.31,126.8 -17.08,225.85 -419.39,749.54 242.67,157.44 700.62,-207.15 740.77,-252.05l102.89 -212.21c-14.63,92.66 -62.39,164.23 -43.89,277.97l383.81 353.25c82.62,77.02 174.27,-65.82 157.5,-97.23 -133.24,13.05 -251.43,-61.25 -182.87,-204.82 76.17,-97.81 248.71,-39.01 373.06,-58.52l-43.89 109.72c111.3,36 180.43,-126.79 270.65,-190.19 -73.1,-94.83 -185.48,-152.34 -245.74,-252.2 -60.53,-100.31 -157.52,-159.89 -330.46,-203.92 -162.91,-41.48 -331.76,-232.3 -715.54,-198.35 -235.31,-134.89 -459.85,-71.2 -529.69,83.91 -577.88,-117.04 -1182.63,-54.47 -1338.64,-21.94 -103.98,16.52 -233.69,103.17 -447.7,127.72 -273.2,31.35 -614.52,242.35 -1110.39,472.11 -496.32,290.86 -803.13,579.84 -449.87,694.92l231.21 2.57zm1766.71 -537.02c61.85,-2.74 463.86,22.64 581,89.26 -68.25,44.89 -232.12,184.3 -308.73,196.02 -67.99,30.19 -140.08,56.3 -115.94,102.87l124.35 219.45 285.28 0c96.91,-7.58 131.05,55.81 102.41,190.19l-424.27 7.31c-321.1,-324.31 -587.04,-418.52 -423.77,-572.1 54.98,-51.71 110.18,-216.15 179.66,-233zm1619.32 168.7c185.08,-29.26 341.46,-134.54 483.12,-232.07 14.52,60.29 -11.91,114.44 43.56,180.87 166.42,191.63 357.81,568.43 619.58,542.26l155.8 -15.58c72.83,-9.85 105.14,53.99 109.72,168.24l-614.46 0c-136.62,-110.3 -244.89,-270.76 -409.85,-330.89 -209.45,-76.35 -320.78,-186.83 -387.48,-312.82zm1147.31 -523.06l52.24 -12.2c17.78,23.22 22.19,47.09 11.31,61.2 -15.46,20.06 -5.23,-3.75 -91.56,-12.69 -86.33,-8.94 -58.33,-62.68 -35.55,-85.32 16.86,-16.76 51.82,-15.11 85.91,8.56l-22.36 40.45zm-337.15 -87.5c34.44,19.74 67.7,32.82 95.8,38.81 -19.29,-6.46 -40.26,-15.91 -61.74,-28.22 -76.74,-44 -130.92,-107.93 -120.96,-142.76 9.95,-34.83 78.86,-5.17 124.29,20.89 45.44,26.05 60.2,12.6 72.54,21.75 -20.09,-17.64 -43.91,-34.78 -70.12,-49.81 -84.77,-48.6 -162.43,-56.82 -173.43,-18.35 -10.98,38.47 48.85,109.09 133.61,157.69z"/>
  <path class="fil1" d="M1448.06 5782.91l249.24 0c54.23,0 94.91,11.31 121.91,34.02 27.01,22.61 40.56,54.94 40.56,96.69 0,43.04 -14.68,76.66 -44.17,100.86 -29.48,24.2 -74.46,36.3 -134.9,36.3l-82.03 0 0 158.08 -150.61 0 0 -425.94zm150.61 181.59l36.72 0c28.92,0 49.15,-4.37 60.9,-13.19 11.64,-8.82 17.51,-20.13 17.51,-33.81 0,-13.39 -5.08,-24.8 -15.25,-34.02 -10.06,-9.32 -29.15,-13.98 -57.17,-13.98l-42.71 0 0 95.01zm580.5 174.05l-170.83 0 -23.5 70.31 -153.2 0 182.35 -425.94 163.48 0 182.46 425.94 -156.93 0 -23.84 -70.31zm-31.41 -92.13l-53.67 -153.12 -53.33 153.12 107 0zm266.07 -263.5l150.27 0 0 425.94 -150.27 0 0 -425.94zm489.89 0l150.27 0 0 425.94 -150.27 0 0 -425.94zm258.84 0l140.1 0 182.69 235.63 0 -235.63 141.34 0 0 425.94 -141.34 0 -181.79 -233.85 0 233.85 -141 0 0 -425.94zm565.7 0l222.8 0c43.83,0 79.31,5.26 106.43,15.67 27,10.51 49.37,25.49 67,45.02 17.62,19.64 30.39,42.35 38.41,68.33 7.91,25.98 11.86,53.45 11.86,82.51 0,45.52 -5.87,80.83 -17.74,105.92 -11.74,25.09 -28.13,46.11 -49.15,62.97 -20.9,16.96 -43.39,28.26 -67.45,33.92 -32.87,7.74 -62.71,11.6 -89.37,11.6l-222.8 0 0 -425.94zm149.92 96.5l0 232.66 36.72 0c31.41,0 53.67,-2.98 66.89,-9.13 13.22,-6.05 23.61,-16.76 31.19,-31.93 7.45,-15.17 11.18,-39.87 11.18,-73.98 0,-45.12 -8.36,-75.96 -25.08,-92.63 -16.83,-16.66 -44.63,-24.99 -83.49,-24.99l-37.4 0zm691.11 -96.5l149.7 0 0 253.98c0,25.19 -4.52,48.89 -13.45,71.3 -8.93,22.31 -22.93,41.95 -42.02,58.71 -19.09,16.76 -39.09,28.46 -60.11,35.3 -29.15,9.42 -64.06,14.18 -104.96,14.18 -23.61,0 -49.37,-1.39 -77.28,-4.36 -27.91,-2.87 -51.18,-8.63 -69.94,-17.26 -18.75,-8.63 -35.93,-20.93 -51.52,-36.79 -15.59,-15.87 -26.21,-32.23 -31.98,-49.09 -9.26,-27.07 -13.9,-51.07 -13.9,-72l0 -253.98 149.7 0 0 260.03c0,23.3 7.34,41.45 21.92,54.44 14.69,13.09 35.02,19.63 61.12,19.63 25.76,0 46.1,-6.44 60.79,-19.34 14.57,-12.79 21.91,-31.14 21.91,-54.74l0 -260.03zm222.8 285.02l142.7 -7.83c3.05,20.33 9.38,35.8 18.87,46.51 15.36,17.26 37.51,25.79 66.21,25.79 21.35,0 37.85,-4.37 49.48,-13.19 11.52,-8.83 17.29,-19.04 17.29,-30.65 0,-11.01 -5.42,-20.93 -16.5,-29.65 -11.07,-8.72 -36.61,-16.96 -76.83,-24.69 -65.76,-12.99 -112.65,-30.15 -140.67,-51.67 -28.24,-21.52 -42.37,-48.89 -42.37,-82.21 0,-21.92 7.23,-42.65 21.69,-62.08 14.47,-19.44 36.16,-34.71 65.19,-45.92 29.04,-11.11 68.81,-16.66 119.31,-16.66 62.02,0 109.37,10.11 141.9,30.35 32.54,20.23 51.86,52.46 58.07,96.59l-141.34 7.24c-3.73,-19.14 -11.64,-33.12 -23.72,-41.85 -11.98,-8.63 -28.59,-12.99 -49.72,-12.99 -17.51,0 -30.61,3.17 -39.43,9.72 -8.81,6.44 -13.22,14.38 -13.22,23.7 0,6.74 3.61,12.8 10.84,18.25 7.12,5.65 23.84,10.81 50.39,15.67 65.53,12.4 112.41,24.99 140.77,37.69 28.36,12.69 49.04,28.36 61.92,47.2 12.88,18.74 19.43,39.77 19.43,63.07 0,27.27 -8.7,52.46 -25.87,75.47 -17.18,23.11 -41.24,40.56 -72.2,52.46 -30.84,11.9 -69.82,17.85 -116.82,17.85 -82.48,0 -139.65,-13.89 -171.39,-41.85 -31.86,-27.87 -49.83,-63.27 -54.01,-106.31zm481.65 -285.02l455.77 0 0 105.22 -152.98 0 0 320.72 -149.92 0 0 -320.72 -152.87 0 0 -105.22zm525.59 425.94l0 -425.94 249.91 0c46.32,0 81.8,3.47 106.2,10.51 24.52,6.94 44.29,19.83 59.31,38.78 15.02,18.84 22.48,41.85 22.48,68.92 0,23.7 -5.76,44.04 -17.17,61.19 -11.52,17.16 -27.34,31.04 -47.34,41.75 -12.88,6.74 -30.39,12.4 -52.65,16.76 17.85,5.26 30.85,10.51 39.09,15.77 5.42,3.47 13.44,10.91 23.95,22.31 10.51,11.5 17.51,20.23 21.01,26.48l72.54 123.47 -169.47 0 -80.11 -130.21c-10.17,-16.76 -19.2,-27.77 -27.23,-32.83 -10.73,-6.54 -23.05,-9.82 -36.72,-9.82l-13.22 0 0 172.86 -150.61 0zm150.61 -253.39l63.27 0c6.78,0 20,-1.88 39.65,-5.75 9.94,-1.78 18.08,-6.25 24.41,-13.39 6.22,-7.14 9.38,-15.37 9.38,-24.69 0,-13.79 -4.97,-24.3 -14.91,-31.64 -9.94,-7.44 -28.59,-11.11 -55.93,-11.11l-65.87 0 0 86.57zm380.63 -172.56l150.27 0 0 425.94 -150.27 0 0 -425.94zm257.6 0l401.76 0 0 90.94 -251.5 0 0 67.74 233.31 0 0 86.87 -233.31 0 0 83.9 258.84 0 0 96.5 -409.11 0 0 -425.94zm463.67 285.02l142.7 -7.83c3.05,20.33 9.38,35.8 18.87,46.51 15.36,17.26 37.51,25.79 66.2,25.79 21.35,0 37.85,-4.37 49.49,-13.19 11.52,-8.83 17.28,-19.04 17.28,-30.65 0,-11.01 -5.42,-20.93 -16.5,-29.65 -11.07,-8.72 -36.6,-16.96 -76.83,-24.69 -65.76,-12.99 -112.64,-30.15 -140.66,-51.67 -28.24,-21.52 -42.37,-48.89 -42.37,-82.21 0,-21.92 7.23,-42.65 21.69,-62.08 14.46,-19.44 36.15,-34.71 65.19,-45.92 29.04,-11.11 68.8,-16.66 119.31,-16.66 62.03,0 109.37,10.11 141.91,30.35 32.54,20.23 51.86,52.46 58.07,96.59l-141.34 7.24c-3.73,-19.14 -11.64,-33.12 -23.72,-41.85 -11.98,-8.63 -28.59,-12.99 -49.72,-12.99 -17.51,0 -30.61,3.17 -39.43,9.72 -8.81,6.44 -13.22,14.38 -13.22,23.7 0,6.74 3.61,12.8 10.84,18.25 7.12,5.65 23.84,10.81 50.39,15.67 65.53,12.4 112.41,24.99 140.78,37.69 28.36,12.69 49.03,28.36 61.91,47.2 12.88,18.74 19.43,39.77 19.43,63.07 0,27.27 -8.7,52.46 -25.87,75.47 -17.17,23.11 -41.24,40.56 -72.2,52.46 -30.84,11.9 -69.82,17.85 -116.82,17.85 -82.48,0 -139.65,-13.89 -171.39,-41.85 -31.86,-27.87 -49.83,-63.27 -54.01,-106.31z"/>
  <path class="fil0" d="M7694.6 5703.64c0,16.72 -4.21,32.28 -12.55,46.66 -8.34,14.43 -19.72,25.77 -34.15,34.11 -14.38,8.3 -29.94,12.46 -46.66,12.46 -16.59,0 -32.11,-4.17 -46.53,-12.46 -14.43,-8.34 -25.81,-19.68 -34.15,-34.11 -8.34,-14.38 -12.51,-29.94 -12.51,-46.66 0,-16.59 4.17,-32.15 12.51,-46.57 8.34,-14.47 19.72,-25.85 34.15,-34.15 14.43,-8.34 29.94,-12.47 46.53,-12.47 16.72,0 32.28,4.13 46.66,12.47 14.43,8.3 25.81,19.68 34.15,34.15 8.34,14.43 12.55,29.98 12.55,46.57zm-18.09 0c0,-20.76 -7.34,-38.48 -22.06,-53.2 -14.68,-14.68 -32.44,-22.06 -53.2,-22.06 -20.76,0 -38.48,7.38 -53.2,22.06 -14.68,14.72 -22.02,32.44 -22.02,53.2 0,20.77 7.34,38.53 22.02,53.2 14.72,14.72 32.44,22.06 53.2,22.06 20.77,0 38.53,-7.34 53.2,-22.06 14.72,-14.68 22.06,-32.44 22.06,-53.2zm-117.5 -49.83l44.57 0c12.63,0 21.77,2.54 27.44,7.63 5.63,5.09 8.46,11.93 8.46,20.48 0,6.67 -2.13,12.46 -6.46,17.34 -4.33,4.88 -11.13,8.43 -20.39,10.63 3.83,1.46 6.63,3 8.42,4.63 2.5,2.29 5.17,5.67 7.92,10.13 0.17,0.33 5.55,9.93 16.14,28.81l-29.31 0c-9.55,-18.97 -15.93,-30.31 -19.18,-33.98 -3.25,-3.71 -6.5,-5.59 -9.76,-5.59 -0.75,0 -1.75,0.12 -3.09,0.37l0 39.19 -24.77 0 0 -99.65zm24.77 42.28l10.76 0c7.17,0 12.22,-1.17 15.14,-3.5 2.96,-2.33 4.42,-5.3 4.42,-8.96 0,-3.67 -1.42,-6.67 -4.21,-9.01 -2.84,-2.29 -7.59,-3.46 -14.35,-3.46l-11.76 0 0 24.93z"/>
 </g>
</svg>
